<?xml version="1.0" encoding="UTF-8"?>
<svg xmlns="http://www.w3.org/2000/svg" xmlns:xlink="http://www.w3.org/1999/xlink" width="106px" height="106px" viewBox="0 0 106 106" version="1.1">
<defs>
<clipPath id="clip1">
  <path d="M 20 4 L 86 4 L 86 71 L 20 71 Z M 20 4 "/>
</clipPath>
<clipPath id="clip2">
  <path d="M 106 53 C 106 82.269531 82.269531 106 53 106 C 23.730469 106 0 82.269531 0 53 C 0 23.730469 23.730469 0 53 0 C 82.269531 0 106 23.730469 106 53 Z M 106 53 "/>
</clipPath>
<clipPath id="clip3">
  <path d="M 19 6 L 42 6 L 42 63 L 19 63 Z M 19 6 "/>
</clipPath>
<clipPath id="clip4">
  <path d="M 106 53 C 106 82.269531 82.269531 106 53 106 C 23.730469 106 0 82.269531 0 53 C 0 23.730469 23.730469 0 53 0 C 82.269531 0 106 23.730469 106 53 Z M 106 53 "/>
</clipPath>
<clipPath id="clip5">
  <path d="M 65 7 L 72 7 L 72 14 L 65 14 Z M 65 7 "/>
</clipPath>
<clipPath id="clip6">
  <path d="M 106 53 C 106 82.269531 82.269531 106 53 106 C 23.730469 106 0 82.269531 0 53 C 0 23.730469 23.730469 0 53 0 C 82.269531 0 106 23.730469 106 53 Z M 106 53 "/>
</clipPath>
<clipPath id="clip7">
  <path d="M 18 35 L 25 35 L 25 42 L 18 42 Z M 18 35 "/>
</clipPath>
<clipPath id="clip8">
  <path d="M 106 53 C 106 82.269531 82.269531 106 53 106 C 23.730469 106 0 82.269531 0 53 C 0 23.730469 23.730469 0 53 0 C 82.269531 0 106 23.730469 106 53 Z M 106 53 "/>
</clipPath>
<clipPath id="clip9">
  <path d="M 72 57 L 78 57 L 78 64 L 72 64 Z M 72 57 "/>
</clipPath>
<clipPath id="clip10">
  <path d="M 106 53 C 106 82.269531 82.269531 106 53 106 C 23.730469 106 0 82.269531 0 53 C 0 23.730469 23.730469 0 53 0 C 82.269531 0 106 23.730469 106 53 Z M 106 53 "/>
</clipPath>
<clipPath id="clip11">
  <path d="M 75 54 L 81 54 L 81 61 L 75 61 Z M 75 54 "/>
</clipPath>
<clipPath id="clip12">
  <path d="M 106 53 C 106 82.269531 82.269531 106 53 106 C 23.730469 106 0 82.269531 0 53 C 0 23.730469 23.730469 0 53 0 C 82.269531 0 106 23.730469 106 53 Z M 106 53 "/>
</clipPath>
<clipPath id="clip13">
  <path d="M 68 60 L 75 60 L 75 67 L 68 67 Z M 68 60 "/>
</clipPath>
<clipPath id="clip14">
  <path d="M 106 53 C 106 82.269531 82.269531 106 53 106 C 23.730469 106 0 82.269531 0 53 C 0 23.730469 23.730469 0 53 0 C 82.269531 0 106 23.730469 106 53 Z M 106 53 "/>
</clipPath>
<clipPath id="clip15">
  <path d="M 50 2 L 57 2 L 57 9 L 50 9 Z M 50 2 "/>
</clipPath>
<clipPath id="clip16">
  <path d="M 106 53 C 106 82.269531 82.269531 106 53 106 C 23.730469 106 0 82.269531 0 53 C 0 23.730469 23.730469 0 53 0 C 82.269531 0 106 23.730469 106 53 Z M 106 53 "/>
</clipPath>
<clipPath id="clip17">
  <path d="M 77 17 L 84 17 L 84 23 L 77 23 Z M 77 17 "/>
</clipPath>
<clipPath id="clip18">
  <path d="M 106 53 C 106 82.269531 82.269531 106 53 106 C 23.730469 106 0 82.269531 0 53 C 0 23.730469 23.730469 0 53 0 C 82.269531 0 106 23.730469 106 53 Z M 106 53 "/>
</clipPath>
<clipPath id="clip19">
  <path d="M 20 19 L 40 19 L 40 66 L 20 66 Z M 20 19 "/>
</clipPath>
<clipPath id="clip20">
  <path d="M 106 53 C 106 82.269531 82.269531 106 53 106 C 23.730469 106 0 82.269531 0 53 C 0 23.730469 23.730469 0 53 0 C 82.269531 0 106 23.730469 106 53 Z M 106 53 "/>
</clipPath>
<clipPath id="clip21">
  <path d="M 59 4 L 69 4 L 69 13 L 59 13 Z M 59 4 "/>
</clipPath>
<clipPath id="clip22">
  <path d="M 106 53 C 106 82.269531 82.269531 106 53 106 C 23.730469 106 0 82.269531 0 53 C 0 23.730469 23.730469 0 53 0 C 82.269531 0 106 23.730469 106 53 Z M 106 53 "/>
</clipPath>
<clipPath id="clip23">
  <path d="M 18 3 L 48 3 L 48 48 L 18 48 Z M 18 3 "/>
</clipPath>
<clipPath id="clip24">
  <path d="M 106 53 C 106 82.269531 82.269531 106 53 106 C 23.730469 106 0 82.269531 0 53 C 0 23.730469 23.730469 0 53 0 C 82.269531 0 106 23.730469 106 53 Z M 106 53 "/>
</clipPath>
<clipPath id="clip25">
  <path d="M 71 12 L 80 12 L 80 22 L 71 22 Z M 71 12 "/>
</clipPath>
<clipPath id="clip26">
  <path d="M 106 53 C 106 82.269531 82.269531 106 53 106 C 23.730469 106 0 82.269531 0 53 C 0 23.730469 23.730469 0 53 0 C 82.269531 0 106 23.730469 106 53 Z M 106 53 "/>
</clipPath>
<clipPath id="clip27">
  <path d="M 77 22 L 86 22 L 86 31 L 77 31 Z M 77 22 "/>
</clipPath>
<clipPath id="clip28">
  <path d="M 106 53 C 106 82.269531 82.269531 106 53 106 C 23.730469 106 0 82.269531 0 53 C 0 23.730469 23.730469 0 53 0 C 82.269531 0 106 23.730469 106 53 Z M 106 53 "/>
</clipPath>
<clipPath id="clip29">
  <path d="M 20 8 L 40 8 L 40 53 L 20 53 Z M 20 8 "/>
</clipPath>
<clipPath id="clip30">
  <path d="M 106 53 C 106 82.269531 82.269531 106 53 106 C 23.730469 106 0 82.269531 0 53 C 0 23.730469 23.730469 0 53 0 C 82.269531 0 106 23.730469 106 53 Z M 106 53 "/>
</clipPath>
<clipPath id="clip31">
  <path d="M 54 3 L 62 3 L 62 11 L 54 11 Z M 54 3 "/>
</clipPath>
<clipPath id="clip32">
  <path d="M 106 53 C 106 82.269531 82.269531 106 53 106 C 23.730469 106 0 82.269531 0 53 C 0 23.730469 23.730469 0 53 0 C 82.269531 0 106 23.730469 106 53 Z M 106 53 "/>
</clipPath>
<clipPath id="clip33">
  <path d="M 19 29 L 27 29 L 27 38 L 19 38 Z M 19 29 "/>
</clipPath>
<clipPath id="clip34">
  <path d="M 106 53 C 106 82.269531 82.269531 106 53 106 C 23.730469 106 0 82.269531 0 53 C 0 23.730469 23.730469 0 53 0 C 82.269531 0 106 23.730469 106 53 Z M 106 53 "/>
</clipPath>
<clipPath id="clip35">
  <path d="M 80 32 L 89 32 L 89 41 L 80 41 Z M 80 32 "/>
</clipPath>
<clipPath id="clip36">
  <path d="M 106 53 C 106 82.269531 82.269531 106 53 106 C 23.730469 106 0 82.269531 0 53 C 0 23.730469 23.730469 0 53 0 C 82.269531 0 106 23.730469 106 53 Z M 106 53 "/>
</clipPath>
<clipPath id="clip37">
  <path d="M 77 43 L 86 43 L 86 51 L 77 51 Z M 77 43 "/>
</clipPath>
<clipPath id="clip38">
  <path d="M 106 53 C 106 82.269531 82.269531 106 53 106 C 23.730469 106 0 82.269531 0 53 C 0 23.730469 23.730469 0 53 0 C 82.269531 0 106 23.730469 106 53 Z M 106 53 "/>
</clipPath>
<clipPath id="clip39">
  <path d="M 26 12 L 34 12 L 34 21 L 26 21 Z M 26 12 "/>
</clipPath>
<clipPath id="clip40">
  <path d="M 106 53 C 106 82.269531 82.269531 106 53 106 C 23.730469 106 0 82.269531 0 53 C 0 23.730469 23.730469 0 53 0 C 82.269531 0 106 23.730469 106 53 Z M 106 53 "/>
</clipPath>
<clipPath id="clip41">
  <path d="M 69 9 L 77 9 L 77 18 L 69 18 Z M 69 9 "/>
</clipPath>
<clipPath id="clip42">
  <path d="M 106 53 C 106 82.269531 82.269531 106 53 106 C 23.730469 106 0 82.269531 0 53 C 0 23.730469 23.730469 0 53 0 C 82.269531 0 106 23.730469 106 53 Z M 106 53 "/>
</clipPath>
<clipPath id="clip43">
  <path d="M 44 1 L 53 1 L 53 10 L 44 10 Z M 44 1 "/>
</clipPath>
<clipPath id="clip44">
  <path d="M 106 53 C 106 82.269531 82.269531 106 53 106 C 23.730469 106 0 82.269531 0 53 C 0 23.730469 23.730469 0 53 0 C 82.269531 0 106 23.730469 106 53 Z M 106 53 "/>
</clipPath>
<clipPath id="clip45">
  <path d="M 22 67 L 84 67 L 84 106 L 22 106 Z M 22 67 "/>
</clipPath>
<clipPath id="clip46">
  <path d="M 106 53 C 106 82.269531 82.269531 106 53 106 C 23.730469 106 0 82.269531 0 53 C 0 23.730469 23.730469 0 53 0 C 82.269531 0 106 23.730469 106 53 Z M 106 53 "/>
</clipPath>
<clipPath id="clip47">
  <path d="M 22 82 L 84 82 L 84 106 L 22 106 Z M 22 82 "/>
</clipPath>
<clipPath id="clip48">
  <path d="M 106 53 C 106 82.269531 82.269531 106 53 106 C 23.730469 106 0 82.269531 0 53 C 0 23.730469 23.730469 0 53 0 C 82.269531 0 106 23.730469 106 53 Z M 106 53 "/>
</clipPath>
<clipPath id="clip49">
  <path d="M 37 82 L 69 82 L 69 92 L 37 92 Z M 37 82 "/>
</clipPath>
<clipPath id="clip50">
  <path d="M 106 53 C 106 82.269531 82.269531 106 53 106 C 23.730469 106 0 82.269531 0 53 C 0 23.730469 23.730469 0 53 0 C 82.269531 0 106 23.730469 106 53 Z M 106 53 "/>
</clipPath>
<clipPath id="clip51">
  <path d="M 29 31 L 77 31 L 77 76 L 29 76 Z M 29 31 "/>
</clipPath>
<clipPath id="clip52">
  <path d="M 106 53 C 106 82.269531 82.269531 106 53 106 C 23.730469 106 0 82.269531 0 53 C 0 23.730469 23.730469 0 53 0 C 82.269531 0 106 23.730469 106 53 Z M 106 53 "/>
</clipPath>
<clipPath id="clip53">
  <path d="M 28 31 L 78 31 L 78 50 L 28 50 Z M 28 31 "/>
</clipPath>
<clipPath id="clip54">
  <path d="M 106 53 C 106 82.269531 82.269531 106 53 106 C 23.730469 106 0 82.269531 0 53 C 0 23.730469 23.730469 0 53 0 C 82.269531 0 106 23.730469 106 53 Z M 106 53 "/>
</clipPath>
<clipPath id="clip55">
  <path d="M 43 28 L 51 28 L 51 37 L 43 37 Z M 43 28 "/>
</clipPath>
<clipPath id="clip56">
  <path d="M 106 53 C 106 82.269531 82.269531 106 53 106 C 23.730469 106 0 82.269531 0 53 C 0 23.730469 23.730469 0 53 0 C 82.269531 0 106 23.730469 106 53 Z M 106 53 "/>
</clipPath>
<clipPath id="clip57">
  <path d="M 34 27 L 43 27 L 43 36 L 34 36 Z M 34 27 "/>
</clipPath>
<clipPath id="clip58">
  <path d="M 106 53 C 106 82.269531 82.269531 106 53 106 C 23.730469 106 0 82.269531 0 53 C 0 23.730469 23.730469 0 53 0 C 82.269531 0 106 23.730469 106 53 Z M 106 53 "/>
</clipPath>
<clipPath id="clip59">
  <path d="M 25 29 L 34 29 L 34 37 L 25 37 Z M 25 29 "/>
</clipPath>
<clipPath id="clip60">
  <path d="M 106 53 C 106 82.269531 82.269531 106 53 106 C 23.730469 106 0 82.269531 0 53 C 0 23.730469 23.730469 0 53 0 C 82.269531 0 106 23.730469 106 53 Z M 106 53 "/>
</clipPath>
<clipPath id="clip61">
  <path d="M 54 28 L 62 28 L 62 36 L 54 36 Z M 54 28 "/>
</clipPath>
<clipPath id="clip62">
  <path d="M 106 53 C 106 82.269531 82.269531 106 53 106 C 23.730469 106 0 82.269531 0 53 C 0 23.730469 23.730469 0 53 0 C 82.269531 0 106 23.730469 106 53 Z M 106 53 "/>
</clipPath>
<clipPath id="clip63">
  <path d="M 65 28 L 74 28 L 74 36 L 65 36 Z M 65 28 "/>
</clipPath>
<clipPath id="clip64">
  <path d="M 106 53 C 106 82.269531 82.269531 106 53 106 C 23.730469 106 0 82.269531 0 53 C 0 23.730469 23.730469 0 53 0 C 82.269531 0 106 23.730469 106 53 Z M 106 53 "/>
</clipPath>
<clipPath id="clip65">
  <path d="M 73 31 L 82 31 L 82 40 L 73 40 Z M 73 31 "/>
</clipPath>
<clipPath id="clip66">
  <path d="M 106 53 C 106 82.269531 82.269531 106 53 106 C 23.730469 106 0 82.269531 0 53 C 0 23.730469 23.730469 0 53 0 C 82.269531 0 106 23.730469 106 53 Z M 106 53 "/>
</clipPath>
<clipPath id="clip67">
  <path d="M 50 29 L 56 29 L 56 36 L 50 36 Z M 50 29 "/>
</clipPath>
<clipPath id="clip68">
  <path d="M 106 53 C 106 82.269531 82.269531 106 53 106 C 23.730469 106 0 82.269531 0 53 C 0 23.730469 23.730469 0 53 0 C 82.269531 0 106 23.730469 106 53 Z M 106 53 "/>
</clipPath>
<clipPath id="clip69">
  <path d="M 30 29 L 37 29 L 37 36 L 30 36 Z M 30 29 "/>
</clipPath>
<clipPath id="clip70">
  <path d="M 106 53 C 106 82.269531 82.269531 106 53 106 C 23.730469 106 0 82.269531 0 53 C 0 23.730469 23.730469 0 53 0 C 82.269531 0 106 23.730469 106 53 Z M 106 53 "/>
</clipPath>
<clipPath id="clip71">
  <path d="M 40 29 L 47 29 L 47 36 L 40 36 Z M 40 29 "/>
</clipPath>
<clipPath id="clip72">
  <path d="M 106 53 C 106 82.269531 82.269531 106 53 106 C 23.730469 106 0 82.269531 0 53 C 0 23.730469 23.730469 0 53 0 C 82.269531 0 106 23.730469 106 53 Z M 106 53 "/>
</clipPath>
<clipPath id="clip73">
  <path d="M 61 30 L 67 30 L 67 37 L 61 37 Z M 61 30 "/>
</clipPath>
<clipPath id="clip74">
  <path d="M 106 53 C 106 82.269531 82.269531 106 53 106 C 23.730469 106 0 82.269531 0 53 C 0 23.730469 23.730469 0 53 0 C 82.269531 0 106 23.730469 106 53 Z M 106 53 "/>
</clipPath>
<clipPath id="clip75">
  <path d="M 70 30 L 77 30 L 77 37 L 70 37 Z M 70 30 "/>
</clipPath>
<clipPath id="clip76">
  <path d="M 106 53 C 106 82.269531 82.269531 106 53 106 C 23.730469 106 0 82.269531 0 53 C 0 23.730469 23.730469 0 53 0 C 82.269531 0 106 23.730469 106 53 Z M 106 53 "/>
</clipPath>
<clipPath id="clip77">
  <path d="M 33 38 L 73 38 L 73 53 L 33 53 Z M 33 38 "/>
</clipPath>
<clipPath id="clip78">
  <path d="M 106 53 C 106 82.269531 82.269531 106 53 106 C 23.730469 106 0 82.269531 0 53 C 0 23.730469 23.730469 0 53 0 C 82.269531 0 106 23.730469 106 53 Z M 106 53 "/>
</clipPath>
<clipPath id="clip79">
  <path d="M 77 48 L 86 48 L 86 57 L 77 57 Z M 77 48 "/>
</clipPath>
<clipPath id="clip80">
  <path d="M 106 53 C 106 82.269531 82.269531 106 53 106 C 23.730469 106 0 82.269531 0 53 C 0 23.730469 23.730469 0 53 0 C 82.269531 0 106 23.730469 106 53 Z M 106 53 "/>
</clipPath>
<clipPath id="clip81">
  <path d="M 82 28 L 89 28 L 89 35 L 82 35 Z M 82 28 "/>
</clipPath>
<clipPath id="clip82">
  <path d="M 106 53 C 106 82.269531 82.269531 106 53 106 C 23.730469 106 0 82.269531 0 53 C 0 23.730469 23.730469 0 53 0 C 82.269531 0 106 23.730469 106 53 Z M 106 53 "/>
</clipPath>
<clipPath id="clip83">
  <path d="M 81 39 L 88 39 L 88 46 L 81 46 Z M 81 39 "/>
</clipPath>
<clipPath id="clip84">
  <path d="M 106 53 C 106 82.269531 82.269531 106 53 106 C 23.730469 106 0 82.269531 0 53 C 0 23.730469 23.730469 0 53 0 C 82.269531 0 106 23.730469 106 53 Z M 106 53 "/>
</clipPath>
</defs>
<g id="surface1">
<path style=" stroke:none;fill-rule:nonzero;fill:rgb(17.254902%,24.313725%,31.372549%);fill-opacity:1;" d="M 106 53 C 106 82.269531 82.269531 106 53 106 C 23.730469 106 0 82.269531 0 53 C 0 23.730469 23.730469 0 53 0 C 82.269531 0 106 23.730469 106 53 Z M 106 53 "/>
<g clip-path="url(#clip1)" clip-rule="nonzero">
<g clip-path="url(#clip2)" clip-rule="nonzero">
<path style=" stroke:none;fill-rule:nonzero;fill:rgb(7.843137%,9.019608%,12.54902%);fill-opacity:1;" d="M 85.605469 37.566406 C 85.605469 38.484375 85.566406 39.386719 85.496094 40.285156 C 85.371094 41.785156 85.140625 43.277344 84.8125 44.75 C 84.367188 46.746094 83.730469 48.695312 82.90625 50.570312 C 82.148438 52.328125 81.230469 54.011719 80.167969 55.605469 C 79.328125 56.863281 78.40625 58.066406 77.398438 59.195312 C 77.152344 59.472656 76.902344 59.746094 76.648438 60.011719 C 75.8125 60.894531 74.929688 61.726562 74 62.503906 C 73.761719 62.707031 73.523438 62.902344 73.28125 63.09375 C 72.125 64.019531 70.90625 64.859375 69.632812 65.613281 C 65.988281 67.789062 61.945312 69.21875 57.746094 69.824219 C 54.625 70.285156 51.457031 70.289062 48.332031 69.835938 C 44.566406 69.296875 40.921875 68.097656 37.566406 66.296875 C 37.027344 66.007812 36.5 65.699219 35.980469 65.382812 C 34.414062 64.421875 32.933594 63.332031 31.554688 62.121094 C 31.398438 61.992188 31.25 61.859375 31.101562 61.722656 C 30.070312 60.789062 29.097656 59.789062 28.195312 58.726562 C 28.027344 58.53125 27.859375 58.332031 27.695312 58.132812 C 26.328125 56.453125 25.132812 54.640625 24.121094 52.726562 C 24.023438 52.542969 23.929688 52.355469 23.839844 52.171875 C 23.042969 50.589844 22.378906 48.945312 21.851562 47.253906 C 21.746094 46.914062 21.648438 46.570312 21.554688 46.226562 C 21.0625 44.445312 20.726562 42.621094 20.546875 40.777344 C 20.519531 40.464844 20.492188 40.152344 20.46875 39.832031 C 20.417969 39.078125 20.394531 38.324219 20.390625 37.566406 C 20.390625 37.109375 20.402344 36.660156 20.421875 36.207031 C 20.425781 35.980469 20.4375 35.761719 20.457031 35.535156 C 20.542969 34.058594 20.734375 32.605469 21.015625 31.183594 C 21.304688 29.738281 21.691406 28.308594 22.175781 26.917969 C 22.308594 26.523438 22.453125 26.128906 22.605469 25.746094 C 23.0625 24.566406 23.589844 23.410156 24.1875 22.292969 C 24.65625 21.410156 25.164062 20.546875 25.714844 19.710938 C 26.070312 19.167969 26.441406 18.636719 26.828125 18.117188 C 27.25 17.546875 27.695312 16.988281 28.160156 16.449219 C 28.964844 15.5 29.828125 14.597656 30.742188 13.75 C 31.054688 13.457031 31.371094 13.171875 31.691406 12.894531 C 32.914062 11.832031 34.214844 10.863281 35.585938 10.003906 C 36.046875 9.707031 36.519531 9.425781 37 9.15625 C 37.695312 8.761719 38.410156 8.390625 39.136719 8.050781 C 40.9375 7.203125 42.8125 6.523438 44.738281 6.015625 C 45.472656 5.824219 46.214844 5.660156 46.960938 5.527344 C 48.105469 5.308594 49.261719 5.152344 50.425781 5.0625 C 51.019531 5.015625 51.617188 4.988281 52.214844 4.976562 C 52.476562 4.96875 52.734375 4.964844 53.003906 4.964844 C 54.015625 4.964844 55.027344 5.011719 56.039062 5.101562 C 57.675781 5.253906 59.273438 5.527344 60.828125 5.914062 C 61.1875 6 61.539062 6.09375 61.894531 6.191406 C 64.125 6.824219 66.28125 7.695312 68.328125 8.789062 C 69.171875 9.234375 69.992188 9.71875 70.789062 10.242188 C 70.929688 10.335938 71.074219 10.425781 71.214844 10.519531 C 72.328125 11.273438 73.394531 12.09375 74.40625 12.980469 C 75.074219 13.558594 75.71875 14.164062 76.328125 14.800781 C 77.289062 15.777344 78.1875 16.816406 79.011719 17.910156 C 79.179688 18.125 79.339844 18.339844 79.492188 18.558594 C 80.300781 19.683594 81.039062 20.859375 81.699219 22.078125 C 81.820312 22.296875 81.933594 22.523438 82.046875 22.742188 C 83.136719 24.875 83.992188 27.121094 84.589844 29.445312 C 84.898438 30.644531 85.132812 31.863281 85.300781 33.09375 C 85.503906 34.554688 85.605469 36.050781 85.605469 37.566406 Z M 85.605469 37.566406 "/>
</g>
</g>
<g clip-path="url(#clip3)" clip-rule="nonzero">
<g clip-path="url(#clip4)" clip-rule="nonzero">
<path style=" stroke:none;fill-rule:nonzero;fill:rgb(7.843137%,9.019608%,12.54902%);fill-opacity:1;" d="M 33.035156 59.609375 C 33.035156 59.636719 33.035156 59.664062 33.03125 59.695312 C 33.003906 60.707031 32.441406 61.632812 31.554688 62.121094 C 31.445312 62.1875 31.332031 62.242188 31.210938 62.285156 C 30.875 62.417969 30.519531 62.488281 30.15625 62.488281 C 28.570312 62.484375 27.28125 61.195312 27.285156 59.609375 C 27.285156 59.335938 27.324219 59.070312 27.394531 58.8125 C 27.464844 58.570312 27.566406 58.339844 27.695312 58.132812 C 28.351562 57.027344 29.664062 56.496094 30.90625 56.832031 C 31.265625 56.925781 31.605469 57.089844 31.902344 57.320312 C 32.148438 57.511719 32.363281 57.738281 32.542969 57.996094 C 32.867188 58.472656 33.039062 59.035156 33.035156 59.609375 Z M 25.152344 28.601562 C 25.152344 29.140625 25 29.664062 24.710938 30.117188 C 24.191406 30.964844 23.265625 31.476562 22.273438 31.472656 C 21.839844 31.476562 21.410156 31.375 21.015625 31.183594 C 20.8125 31.085938 20.621094 30.964844 20.445312 30.820312 C 19.78125 30.273438 19.398438 29.460938 19.402344 28.601562 C 19.398438 27.011719 20.6875 25.722656 22.273438 25.722656 C 22.382812 25.722656 22.496094 25.730469 22.605469 25.746094 C 23.886719 25.886719 24.914062 26.871094 25.113281 28.144531 C 25.140625 28.292969 25.152344 28.445312 25.152344 28.601562 Z M 41.265625 9.386719 C 41.269531 10.976562 39.984375 12.265625 38.394531 12.265625 C 37.039062 12.269531 35.871094 11.324219 35.585938 10 C 35.484375 9.558594 35.492188 9.097656 35.613281 8.65625 C 35.945312 7.394531 37.085938 6.515625 38.394531 6.515625 C 38.691406 6.515625 38.984375 6.558594 39.269531 6.648438 C 39.742188 6.800781 40.171875 7.074219 40.507812 7.441406 C 40.996094 7.972656 41.269531 8.667969 41.265625 9.386719 Z M 41.265625 9.386719 "/>
</g>
</g>
<g clip-path="url(#clip5)" clip-rule="nonzero">
<g clip-path="url(#clip6)" clip-rule="nonzero">
<path style=" stroke:none;fill-rule:nonzero;fill:rgb(7.843137%,9.019608%,12.54902%);fill-opacity:1;" d="M 71.21875 10.621094 C 71.21875 12.210938 69.929688 13.496094 68.34375 13.496094 C 66.753906 13.496094 65.46875 12.210938 65.46875 10.621094 C 65.46875 9.035156 66.753906 7.746094 68.34375 7.746094 C 69.929688 7.746094 71.21875 9.035156 71.21875 10.621094 Z M 71.21875 10.621094 "/>
</g>
</g>
<g clip-path="url(#clip7)" clip-rule="nonzero">
<g clip-path="url(#clip8)" clip-rule="nonzero">
<path style=" stroke:none;fill-rule:nonzero;fill:rgb(7.843137%,9.019608%,12.54902%);fill-opacity:1;" d="M 24.5625 38.128906 C 24.5625 38.496094 24.492188 38.847656 24.363281 39.167969 C 24.082031 39.894531 23.519531 40.480469 22.796875 40.78125 C 22.078125 41.085938 21.265625 41.085938 20.546875 40.777344 C 20.3125 40.671875 20.089844 40.535156 19.886719 40.378906 C 19.179688 39.808594 18.78125 38.941406 18.8125 38.03125 C 18.84375 37.125 19.300781 36.285156 20.042969 35.765625 C 20.171875 35.679688 20.308594 35.597656 20.457031 35.535156 C 20.839844 35.351562 21.257812 35.253906 21.683594 35.257812 C 22.863281 35.253906 23.925781 35.976562 24.359375 37.078125 C 24.492188 37.398438 24.5625 37.757812 24.5625 38.128906 Z M 24.5625 38.128906 "/>
</g>
</g>
<g clip-path="url(#clip9)" clip-rule="nonzero">
<g clip-path="url(#clip10)" clip-rule="nonzero">
<path style=" stroke:none;fill-rule:nonzero;fill:rgb(7.843137%,9.019608%,12.54902%);fill-opacity:1;" d="M 77.890625 60.804688 C 77.890625 62.394531 76.605469 63.683594 75.015625 63.683594 C 73.425781 63.683594 72.140625 62.394531 72.140625 60.804688 C 72.140625 59.21875 73.425781 57.929688 75.015625 57.929688 C 76.605469 57.929688 77.890625 59.21875 77.890625 60.804688 Z M 77.890625 60.804688 "/>
</g>
</g>
<g clip-path="url(#clip11)" clip-rule="nonzero">
<g clip-path="url(#clip12)" clip-rule="nonzero">
<path style=" stroke:none;fill-rule:nonzero;fill:rgb(7.843137%,9.019608%,12.54902%);fill-opacity:1;" d="M 80.847656 57.460938 C 80.847656 59.050781 79.5625 60.335938 77.972656 60.335938 C 76.386719 60.335938 75.097656 59.050781 75.097656 57.460938 C 75.097656 55.875 76.386719 54.585938 77.972656 54.585938 C 79.5625 54.585938 80.847656 55.875 80.847656 57.460938 Z M 80.847656 57.460938 "/>
</g>
</g>
<g clip-path="url(#clip13)" clip-rule="nonzero">
<g clip-path="url(#clip14)" clip-rule="nonzero">
<path style=" stroke:none;fill-rule:nonzero;fill:rgb(7.843137%,9.019608%,12.54902%);fill-opacity:1;" d="M 74.089844 63.210938 C 74.089844 64.800781 72.804688 66.085938 71.214844 66.085938 C 69.628906 66.085938 68.339844 64.800781 68.339844 63.210938 C 68.339844 61.625 69.628906 60.335938 71.214844 60.335938 C 72.804688 60.335938 74.089844 61.625 74.089844 63.210938 Z M 74.089844 63.210938 "/>
</g>
</g>
<g clip-path="url(#clip15)" clip-rule="nonzero">
<g clip-path="url(#clip16)" clip-rule="nonzero">
<path style=" stroke:none;fill-rule:nonzero;fill:rgb(7.843137%,9.019608%,12.54902%);fill-opacity:1;" d="M 56.101562 5.710938 C 56.101562 6.742188 55.546875 7.699219 54.648438 8.207031 C 54.214844 8.457031 53.722656 8.589844 53.222656 8.589844 C 53.148438 8.589844 53.078125 8.589844 53.003906 8.578125 C 52.457031 8.539062 51.933594 8.339844 51.5 8.007812 C 50.773438 7.46875 50.347656 6.617188 50.347656 5.710938 C 50.347656 5.484375 50.371094 5.269531 50.425781 5.0625 C 50.574219 4.402344 50.957031 3.816406 51.5 3.417969 C 51.933594 3.082031 52.457031 2.886719 53.003906 2.847656 C 53.078125 2.835938 53.148438 2.835938 53.222656 2.835938 C 54.207031 2.835938 55.074219 3.328125 55.589844 4.082031 C 55.800781 4.382812 55.957031 4.730469 56.039062 5.101562 C 56.078125 5.296875 56.101562 5.5 56.101562 5.710938 Z M 56.101562 5.710938 "/>
</g>
</g>
<g clip-path="url(#clip17)" clip-rule="nonzero">
<g clip-path="url(#clip18)" clip-rule="nonzero">
<path style=" stroke:none;fill-rule:nonzero;fill:rgb(7.843137%,9.019608%,12.54902%);fill-opacity:1;" d="M 83.722656 20.125 C 83.722656 21.710938 82.4375 23 80.847656 23 C 79.261719 23 77.972656 21.710938 77.972656 20.125 C 77.972656 18.535156 79.261719 17.25 80.847656 17.25 C 82.4375 17.25 83.722656 18.535156 83.722656 20.125 Z M 83.722656 20.125 "/>
</g>
</g>
<g clip-path="url(#clip19)" clip-rule="nonzero">
<g clip-path="url(#clip20)" clip-rule="nonzero">
<path style=" stroke:none;fill-rule:nonzero;fill:rgb(7.843137%,9.019608%,12.54902%);fill-opacity:1;" d="M 31.554688 54.585938 C 31.554688 55.054688 31.476562 55.5 31.332031 55.921875 C 31.230469 56.242188 31.085938 56.550781 30.90625 56.832031 C 30.296875 57.808594 29.316406 58.492188 28.195312 58.726562 C 27.929688 58.785156 27.664062 58.8125 27.394531 58.8125 C 27.371094 58.820312 27.34375 58.820312 27.320312 58.820312 C 24.980469 58.820312 23.078125 56.925781 23.078125 54.585938 C 23.078125 53.894531 23.246094 53.242188 23.535156 52.667969 C 23.621094 52.492188 23.722656 52.328125 23.839844 52.167969 C 24.628906 51.027344 25.929688 50.34375 27.320312 50.34375 C 27.441406 50.34375 27.5625 50.351562 27.683594 50.363281 C 28.535156 50.4375 29.34375 50.765625 30 51.308594 C 30.984375 52.109375 31.554688 53.316406 31.554688 54.585938 Z M 39.542969 61.207031 C 39.542969 63.023438 38.382812 64.636719 36.664062 65.214844 C 36.441406 65.292969 36.210938 65.347656 35.980469 65.382812 C 35.753906 65.421875 35.527344 65.441406 35.300781 65.441406 C 33.378906 65.445312 31.695312 64.144531 31.210938 62.285156 C 31.15625 62.101562 31.121094 61.914062 31.101562 61.722656 C 31.078125 61.550781 31.066406 61.378906 31.066406 61.207031 C 31.066406 60.035156 31.542969 58.984375 32.300781 58.21875 C 32.382812 58.136719 32.460938 58.0625 32.542969 58 C 33.304688 57.328125 34.285156 56.964844 35.300781 56.96875 C 37.640625 56.96875 39.539062 58.867188 39.542969 61.207031 Z M 29.386719 23.902344 C 29.386719 26.242188 27.492188 28.144531 25.152344 28.144531 L 25.113281 28.144531 C 24.011719 28.132812 22.957031 27.691406 22.175781 26.914062 C 21.859375 26.609375 21.59375 26.253906 21.394531 25.863281 C 20.84375 24.8125 20.761719 23.582031 21.164062 22.46875 C 21.566406 21.355469 22.414062 20.460938 23.507812 20.003906 C 24.027344 19.78125 24.585938 19.667969 25.152344 19.671875 C 25.34375 19.671875 25.527344 19.683594 25.714844 19.710938 C 27.589844 19.953125 29.074219 21.421875 29.335938 23.296875 C 29.371094 23.492188 29.386719 23.695312 29.386719 23.902344 Z M 29.386719 23.902344 "/>
</g>
</g>
<g clip-path="url(#clip21)" clip-rule="nonzero">
<g clip-path="url(#clip22)" clip-rule="nonzero">
<path style=" stroke:none;fill-rule:nonzero;fill:rgb(7.843137%,9.019608%,12.54902%);fill-opacity:1;" d="M 68.34375 8.585938 C 68.34375 10.925781 66.445312 12.824219 64.105469 12.824219 C 61.765625 12.824219 59.867188 10.925781 59.867188 8.585938 C 59.867188 6.246094 61.765625 4.351562 64.105469 4.351562 C 66.445312 4.351562 68.34375 6.246094 68.34375 8.585938 Z M 68.34375 8.585938 "/>
</g>
</g>
<g clip-path="url(#clip23)" clip-rule="nonzero">
<g clip-path="url(#clip24)" clip-rule="nonzero">
<path style=" stroke:none;fill-rule:nonzero;fill:rgb(7.843137%,9.019608%,12.54902%);fill-opacity:1;" d="M 47.59375 7.742188 C 47.59375 8.289062 47.488281 8.808594 47.296875 9.289062 C 46.664062 10.914062 45.097656 11.984375 43.351562 11.984375 C 42.398438 11.984375 41.472656 11.660156 40.726562 11.066406 C 39.792969 10.335938 39.210938 9.238281 39.136719 8.050781 C 39.125 7.949219 39.117188 7.847656 39.117188 7.742188 C 39.117188 7.367188 39.167969 6.996094 39.269531 6.648438 C 39.589844 5.433594 40.4375 4.421875 41.582031 3.894531 C 42.722656 3.367188 44.042969 3.378906 45.175781 3.925781 C 45.914062 4.273438 46.535156 4.828125 46.960938 5.523438 C 47.375 6.191406 47.59375 6.960938 47.59375 7.742188 Z M 27.285156 43.191406 C 27.285156 44.160156 26.953125 45.101562 26.339844 45.851562 C 25.539062 46.847656 24.324219 47.429688 23.042969 47.425781 C 22.632812 47.425781 22.226562 47.367188 21.851562 47.253906 C 21.554688 47.167969 21.269531 47.050781 21 46.898438 C 19.648438 46.15625 18.808594 44.734375 18.8125 43.191406 C 18.808594 42.152344 19.191406 41.148438 19.886719 40.375 C 20.054688 40.171875 20.253906 39.988281 20.46875 39.832031 C 21.203125 39.257812 22.109375 38.949219 23.042969 38.953125 C 23.492188 38.953125 23.9375 39.023438 24.363281 39.164062 C 26.105469 39.738281 27.28125 41.359375 27.285156 43.191406 Z M 27.285156 43.191406 "/>
</g>
</g>
<g clip-path="url(#clip25)" clip-rule="nonzero">
<g clip-path="url(#clip26)" clip-rule="nonzero">
<path style=" stroke:none;fill-rule:nonzero;fill:rgb(7.843137%,9.019608%,12.54902%);fill-opacity:1;" d="M 79.769531 17.0625 C 79.769531 19.402344 77.871094 21.300781 75.53125 21.300781 C 73.191406 21.300781 71.292969 19.402344 71.292969 17.0625 C 71.292969 14.722656 73.191406 12.824219 75.53125 12.824219 C 77.871094 12.824219 79.769531 14.722656 79.769531 17.0625 Z M 79.769531 17.0625 "/>
</g>
</g>
<g clip-path="url(#clip27)" clip-rule="nonzero">
<g clip-path="url(#clip28)" clip-rule="nonzero">
<path style=" stroke:none;fill-rule:nonzero;fill:rgb(7.843137%,9.019608%,12.54902%);fill-opacity:1;" d="M 85.992188 26.300781 C 85.992188 28.644531 84.09375 30.539062 81.753906 30.539062 C 79.414062 30.539062 77.515625 28.644531 77.515625 26.300781 C 77.515625 23.960938 79.414062 22.066406 81.753906 22.066406 C 84.09375 22.066406 85.992188 23.960938 85.992188 26.300781 Z M 85.992188 26.300781 "/>
</g>
</g>
<g clip-path="url(#clip29)" clip-rule="nonzero">
<g clip-path="url(#clip30)" clip-rule="nonzero">
<path style=" stroke:none;fill-rule:nonzero;fill:rgb(7.843137%,9.019608%,12.54902%);fill-opacity:1;" d="M 39.117188 12.824219 C 39.117188 15.164062 37.21875 17.0625 34.878906 17.0625 C 34.542969 17.0625 34.210938 17.023438 33.886719 16.941406 C 32.316406 16.5625 31.097656 15.324219 30.742188 13.75 C 30.671875 13.445312 30.636719 13.132812 30.636719 12.824219 C 30.636719 12.746094 30.636719 12.671875 30.648438 12.597656 C 30.757812 10.359375 32.613281 8.589844 34.878906 8.589844 C 35.125 8.589844 35.375 8.609375 35.613281 8.65625 C 36.101562 8.738281 36.570312 8.90625 36.996094 9.15625 C 38.113281 9.796875 38.875 10.910156 39.066406 12.183594 C 39.101562 12.394531 39.117188 12.601562 39.117188 12.824219 Z M 27.957031 48.949219 C 27.957031 49.449219 27.859375 49.929688 27.683594 50.363281 C 27.105469 51.792969 25.714844 52.726562 24.175781 52.726562 L 24.121094 52.726562 C 23.925781 52.722656 23.730469 52.703125 23.535156 52.667969 C 21.753906 52.367188 20.390625 50.816406 20.390625 48.949219 C 20.390625 48.191406 20.613281 47.488281 21 46.898438 C 21.15625 46.65625 21.34375 46.429688 21.554688 46.226562 C 22.257812 45.542969 23.195312 45.164062 24.175781 45.167969 C 24.980469 45.167969 25.726562 45.421875 26.339844 45.851562 C 27.355469 46.554688 27.957031 47.714844 27.957031 48.949219 Z M 31.066406 20.121094 C 31.066406 21.40625 30.414062 22.601562 29.335938 23.296875 C 28.726562 23.695312 28.011719 23.90625 27.285156 23.902344 C 26.050781 23.902344 24.894531 23.300781 24.183594 22.292969 C 23.738281 21.65625 23.5 20.898438 23.5 20.121094 C 23.5 20.082031 23.5 20.046875 23.507812 20.003906 C 23.554688 18.277344 24.769531 16.847656 26.386719 16.453125 C 26.679688 16.378906 26.980469 16.34375 27.285156 16.34375 C 27.585938 16.34375 27.878906 16.378906 28.160156 16.449219 C 29.792969 16.835938 31.015625 18.28125 31.0625 20.011719 C 31.066406 20.046875 31.066406 20.085938 31.066406 20.121094 Z M 31.066406 20.121094 "/>
</g>
</g>
<g clip-path="url(#clip31)" clip-rule="nonzero">
<g clip-path="url(#clip32)" clip-rule="nonzero">
<path style=" stroke:none;fill-rule:nonzero;fill:rgb(7.843137%,9.019608%,12.54902%);fill-opacity:1;" d="M 61.953125 6.839844 C 61.953125 8.929688 60.257812 10.621094 58.171875 10.621094 C 56.082031 10.621094 54.390625 8.929688 54.390625 6.839844 C 54.390625 4.753906 56.082031 3.0625 58.171875 3.0625 C 60.257812 3.0625 61.953125 4.753906 61.953125 6.839844 Z M 61.953125 6.839844 "/>
</g>
</g>
<g clip-path="url(#clip33)" clip-rule="nonzero">
<g clip-path="url(#clip34)" clip-rule="nonzero">
<path style=" stroke:none;fill-rule:nonzero;fill:rgb(7.843137%,9.019608%,12.54902%);fill-opacity:1;" d="M 26.863281 33.519531 C 26.863281 34.125 26.71875 34.722656 26.4375 35.261719 C 26 36.109375 25.257812 36.757812 24.359375 37.074219 C 22.988281 37.574219 21.453125 37.234375 20.421875 36.207031 C 20.28125 36.070312 20.15625 35.925781 20.042969 35.765625 C 19.558594 35.117188 19.296875 34.328125 19.300781 33.519531 C 19.300781 32.460938 19.738281 31.503906 20.445312 30.820312 C 20.671875 30.589844 20.933594 30.394531 21.21875 30.234375 C 21.785156 29.910156 22.425781 29.742188 23.078125 29.742188 C 23.664062 29.742188 24.21875 29.875 24.710938 30.117188 C 25.242188 30.367188 25.707031 30.738281 26.066406 31.203125 C 26.585938 31.863281 26.863281 32.679688 26.863281 33.519531 Z M 26.863281 33.519531 "/>
</g>
</g>
<g clip-path="url(#clip35)" clip-rule="nonzero">
<g clip-path="url(#clip36)" clip-rule="nonzero">
<path style=" stroke:none;fill-rule:nonzero;fill:rgb(7.843137%,9.019608%,12.54902%);fill-opacity:1;" d="M 88.023438 36.722656 C 88.023438 38.808594 86.332031 40.5 84.242188 40.5 C 82.15625 40.5 80.464844 38.808594 80.464844 36.722656 C 80.464844 34.632812 82.15625 32.941406 84.242188 32.941406 C 86.332031 32.941406 88.023438 34.632812 88.023438 36.722656 Z M 88.023438 36.722656 "/>
</g>
</g>
<g clip-path="url(#clip37)" clip-rule="nonzero">
<g clip-path="url(#clip38)" clip-rule="nonzero">
<path style=" stroke:none;fill-rule:nonzero;fill:rgb(7.843137%,9.019608%,12.54902%);fill-opacity:1;" d="M 85.53125 46.96875 C 85.53125 49.058594 83.839844 50.75 81.753906 50.75 C 79.664062 50.75 77.972656 49.058594 77.972656 46.96875 C 77.972656 44.882812 79.664062 43.191406 81.753906 43.191406 C 83.839844 43.191406 85.53125 44.882812 85.53125 46.96875 Z M 85.53125 46.96875 "/>
</g>
</g>
<g clip-path="url(#clip39)" clip-rule="nonzero">
<g clip-path="url(#clip40)" clip-rule="nonzero">
<path style=" stroke:none;fill-rule:nonzero;fill:rgb(7.843137%,9.019608%,12.54902%);fill-opacity:1;" d="M 33.941406 16.34375 C 33.941406 16.546875 33.921875 16.75 33.886719 16.941406 C 33.65625 18.445312 32.527344 19.652344 31.0625 20.011719 C 30.765625 20.085938 30.460938 20.121094 30.15625 20.121094 C 28.761719 20.121094 27.480469 19.351562 26.828125 18.117188 C 26.546875 17.605469 26.394531 17.035156 26.386719 16.453125 C 26.378906 16.417969 26.378906 16.378906 26.378906 16.34375 C 26.378906 14.257812 28.070312 12.5625 30.15625 12.5625 C 30.324219 12.5625 30.488281 12.574219 30.648438 12.597656 C 31.011719 12.640625 31.363281 12.742188 31.691406 12.890625 C 33.0625 13.492188 33.945312 14.847656 33.941406 16.34375 Z M 33.941406 16.34375 "/>
</g>
</g>
<g clip-path="url(#clip41)" clip-rule="nonzero">
<g clip-path="url(#clip42)" clip-rule="nonzero">
<path style=" stroke:none;fill-rule:nonzero;fill:rgb(7.843137%,9.019608%,12.54902%);fill-opacity:1;" d="M 76.582031 13.433594 C 76.582031 15.523438 74.890625 17.214844 72.800781 17.214844 C 70.714844 17.214844 69.023438 15.523438 69.023438 13.433594 C 69.023438 11.347656 70.714844 9.65625 72.800781 9.65625 C 74.890625 9.65625 76.582031 11.347656 76.582031 13.433594 Z M 76.582031 13.433594 "/>
</g>
</g>
<g clip-path="url(#clip43)" clip-rule="nonzero">
<g clip-path="url(#clip44)" clip-rule="nonzero">
<path style=" stroke:none;fill-rule:nonzero;fill:rgb(7.843137%,9.019608%,12.54902%);fill-opacity:1;" d="M 52.285156 5.710938 C 52.285156 6.542969 52.011719 7.351562 51.503906 8.007812 C 50.792969 8.945312 49.683594 9.496094 48.507812 9.492188 C 48.097656 9.492188 47.6875 9.425781 47.296875 9.289062 C 45.757812 8.773438 44.722656 7.332031 44.726562 5.710938 C 44.726562 5.066406 44.886719 4.457031 45.175781 3.925781 C 45.832031 2.695312 47.113281 1.929688 48.507812 1.933594 C 49.683594 1.929688 50.792969 2.480469 51.503906 3.414062 C 51.859375 3.871094 52.101562 4.40625 52.214844 4.972656 C 52.261719 5.210938 52.285156 5.457031 52.285156 5.710938 Z M 52.285156 5.710938 "/>
</g>
</g>
<g clip-path="url(#clip45)" clip-rule="nonzero">
<g clip-path="url(#clip46)" clip-rule="nonzero">
<path style=" stroke:none;fill-rule:nonzero;fill:rgb(69.019608%,53.333333%,45.490196%);fill-opacity:1;" d="M 83.726562 111.339844 L 83.726562 111.34375 L 22.273438 111.34375 L 22.273438 111.339844 C 22.273438 102.820312 25.738281 95.113281 31.34375 89.554688 C 31.554688 89.347656 31.761719 89.144531 31.976562 88.941406 C 32.832031 88.140625 33.730469 87.386719 34.671875 86.6875 C 34.960938 86.472656 35.253906 86.261719 35.550781 86.054688 C 36.160156 85.640625 36.785156 85.238281 37.421875 84.867188 C 37.722656 84.6875 38.03125 84.515625 38.335938 84.347656 C 38.34375 84.335938 38.355469 84.335938 38.355469 84.335938 C 38.605469 84.203125 38.847656 84.058594 39.089844 83.90625 C 39.277344 83.800781 39.453125 83.691406 39.628906 83.570312 C 40.164062 83.226562 40.679688 82.859375 41.175781 82.464844 L 41.175781 82.457031 C 45.101562 79.332031 47.667969 74.808594 48.335938 69.835938 C 48.445312 68.988281 48.503906 68.128906 48.503906 67.253906 L 53.003906 67.277344 L 57.585938 67.300781 C 57.585938 68.15625 57.644531 68.996094 57.746094 69.824219 C 57.921875 71.175781 58.238281 72.5 58.691406 73.785156 C 59.90625 77.195312 62.039062 80.199219 64.859375 82.46875 C 65.070312 82.632812 65.277344 82.792969 65.492188 82.949219 C 65.492188 82.949219 65.496094 82.949219 65.503906 82.957031 C 65.664062 83.082031 65.832031 83.199219 66.003906 83.308594 C 66.046875 83.347656 66.101562 83.382812 66.152344 83.414062 C 66.199219 83.449219 66.238281 83.476562 66.285156 83.507812 L 66.335938 83.542969 C 66.527344 83.667969 66.726562 83.789062 66.921875 83.910156 C 67.160156 84.058594 67.402344 84.203125 67.648438 84.335938 C 67.683594 84.34375 67.71875 84.363281 67.75 84.386719 C 68.023438 84.539062 68.296875 84.695312 68.5625 84.855469 C 68.914062 85.058594 69.261719 85.273438 69.605469 85.492188 C 70.210938 85.882812 70.800781 86.296875 71.378906 86.734375 L 71.390625 86.734375 C 72.558594 87.605469 73.664062 88.5625 74.695312 89.59375 C 80.277344 95.15625 83.726562 102.835938 83.726562 111.339844 Z M 83.726562 111.339844 "/>
</g>
</g>
<g clip-path="url(#clip47)" clip-rule="nonzero">
<g clip-path="url(#clip48)" clip-rule="nonzero">
<path style=" stroke:none;fill-rule:nonzero;fill:rgb(93.72549%,78.039216%,63.137255%);fill-opacity:1;" d="M 83.726562 111.339844 L 22.273438 111.339844 C 22.273438 102.820312 25.738281 95.113281 31.34375 89.554688 C 31.554688 89.347656 31.761719 89.144531 31.976562 88.941406 C 32.832031 88.140625 33.730469 87.386719 34.671875 86.6875 C 34.960938 86.472656 35.253906 86.261719 35.550781 86.054688 C 36.160156 85.636719 36.78125 85.238281 37.414062 84.863281 C 37.71875 84.683594 38.023438 84.507812 38.332031 84.339844 C 38.34375 84.328125 38.355469 84.335938 38.355469 84.335938 L 38.355469 84.328125 C 38.847656 84.054688 39.332031 83.761719 39.800781 83.449219 C 40.023438 83.304688 40.234375 83.152344 40.449219 82.992188 C 40.472656 82.980469 40.492188 82.960938 40.515625 82.949219 C 40.671875 82.835938 40.828125 82.714844 40.984375 82.585938 L 41.15625 82.445312 L 41.164062 82.445312 C 41.539062 82.832031 41.933594 83.199219 42.34375 83.546875 C 42.34375 83.554688 42.34375 83.554688 42.351562 83.554688 C 43.378906 84.421875 44.511719 85.160156 45.722656 85.753906 C 47.980469 86.867188 50.460938 87.445312 52.980469 87.445312 L 53.027344 87.445312 C 57.660156 87.445312 61.847656 85.535156 64.859375 82.46875 L 64.867188 82.464844 L 64.871094 82.457031 C 65.085938 82.636719 65.304688 82.804688 65.53125 82.972656 C 65.683594 83.089844 65.839844 83.199219 66 83.308594 C 66.046875 83.34375 66.097656 83.378906 66.152344 83.414062 C 66.199219 83.449219 66.238281 83.476562 66.285156 83.507812 L 66.335938 83.542969 C 66.527344 83.667969 66.726562 83.792969 66.921875 83.914062 C 67.160156 84.058594 67.402344 84.195312 67.644531 84.328125 C 67.6875 84.34375 67.714844 84.363281 67.75 84.382812 C 68.023438 84.53125 68.300781 84.6875 68.566406 84.851562 C 68.921875 85.058594 69.269531 85.273438 69.605469 85.496094 C 70.210938 85.882812 70.800781 86.292969 71.375 86.726562 L 71.386719 86.726562 C 72.558594 87.605469 73.664062 88.5625 74.695312 89.59375 C 80.277344 95.15625 83.726562 102.835938 83.726562 111.339844 Z M 83.726562 111.339844 "/>
</g>
</g>
<g clip-path="url(#clip49)" clip-rule="nonzero">
<g clip-path="url(#clip50)" clip-rule="nonzero">
<path style=" stroke:none;fill-rule:nonzero;fill:rgb(32.941176%,24.313725%,21.176471%);fill-opacity:1;" d="M 68.566406 84.851562 L 68.558594 84.855469 L 67.929688 85.5 C 63.957031 89.546875 58.65625 91.773438 53.003906 91.777344 L 52.988281 91.777344 C 47.273438 91.765625 41.980469 89.53125 38.023438 85.488281 L 37.421875 84.867188 L 37.414062 84.863281 C 37.714844 84.683594 38.023438 84.507812 38.332031 84.339844 C 38.34375 84.328125 38.351562 84.335938 38.351562 84.335938 L 38.351562 84.328125 C 38.601562 84.191406 38.847656 84.050781 39.089844 83.90625 C 39.269531 83.796875 39.449219 83.6875 39.628906 83.570312 L 39.800781 83.449219 C 40.023438 83.304688 40.242188 83.152344 40.449219 82.992188 C 40.472656 82.980469 40.492188 82.960938 40.515625 82.949219 C 40.671875 82.828125 40.832031 82.707031 40.984375 82.585938 L 41.15625 82.445312 L 41.167969 82.457031 L 41.175781 82.457031 L 41.175781 82.464844 C 41.542969 82.84375 41.933594 83.207031 42.34375 83.546875 C 42.34375 83.554688 42.34375 83.554688 42.351562 83.554688 C 43.378906 84.421875 44.511719 85.164062 45.722656 85.753906 C 47.980469 86.863281 50.460938 87.441406 52.980469 87.445312 L 53.027344 87.445312 C 57.660156 87.445312 61.847656 85.535156 64.859375 82.46875 L 64.871094 82.457031 C 65.074219 82.625 65.277344 82.789062 65.492188 82.949219 C 65.492188 82.949219 65.496094 82.949219 65.503906 82.957031 C 65.507812 82.960938 65.519531 82.96875 65.53125 82.972656 C 65.683594 83.089844 65.839844 83.199219 66 83.308594 C 66.046875 83.34375 66.097656 83.378906 66.152344 83.414062 C 66.199219 83.449219 66.238281 83.476562 66.285156 83.507812 L 66.335938 83.542969 C 66.527344 83.667969 66.726562 83.789062 66.921875 83.914062 C 67.160156 84.058594 67.402344 84.195312 67.644531 84.328125 C 67.6875 84.339844 67.714844 84.363281 67.75 84.382812 C 68.023438 84.53125 68.300781 84.6875 68.566406 84.851562 Z M 68.566406 84.851562 "/>
</g>
</g>
<g clip-path="url(#clip51)" clip-rule="nonzero">
<g clip-path="url(#clip52)" clip-rule="nonzero">
<path style=" stroke:none;fill-rule:nonzero;fill:rgb(69.019608%,53.333333%,45.490196%);fill-opacity:1;" d="M 76.582031 31.78125 L 76.582031 45.589844 C 76.582031 46.886719 76.492188 48.167969 76.316406 49.425781 C 75.894531 52.550781 74.960938 55.523438 73.675781 58.261719 C 73.300781 59.066406 72.894531 59.851562 72.457031 60.621094 C 72.359375 60.796875 72.261719 60.96875 72.164062 61.136719 C 71.296875 62.597656 70.324219 63.992188 69.253906 65.3125 C 68.988281 65.648438 68.714844 65.976562 68.425781 66.296875 C 65.457031 69.710938 62.003906 72.308594 58.691406 73.785156 C 56.703125 74.667969 54.757812 75.148438 53.003906 75.148438 C 51.257812 75.148438 49.335938 74.679688 47.367188 73.808594 C 44.035156 72.339844 40.558594 69.726562 37.566406 66.296875 C 37.257812 65.941406 36.957031 65.582031 36.664062 65.214844 C 35.277344 63.496094 34.0625 61.644531 33.03125 59.695312 C 32.777344 59.207031 32.53125 58.714844 32.300781 58.21875 C 32.160156 57.921875 32.027344 57.621094 31.902344 57.320312 C 31.699219 56.859375 31.511719 56.394531 31.332031 55.921875 C 30.769531 54.421875 30.324219 52.878906 30 51.308594 C 29.871094 50.683594 29.765625 50.054688 29.683594 49.425781 C 29.507812 48.152344 29.417969 46.871094 29.417969 45.589844 L 29.417969 31.78125 Z M 76.582031 31.78125 "/>
</g>
</g>
<g clip-path="url(#clip53)" clip-rule="nonzero">
<g clip-path="url(#clip54)" clip-rule="nonzero">
<path style=" stroke:none;fill-rule:nonzero;fill:rgb(7.843137%,9.019608%,12.54902%);fill-opacity:1;" d="M 28.839844 49.542969 C 30.570312 49.542969 31.972656 48.140625 31.972656 46.410156 L 31.972656 31.363281 L 28.839844 31.363281 Z M 74.027344 31.363281 L 77.160156 31.363281 L 77.160156 49.542969 C 75.429688 49.542969 74.027344 48.140625 74.027344 46.410156 Z M 74.027344 31.363281 "/>
</g>
</g>
<g clip-path="url(#clip55)" clip-rule="nonzero">
<g clip-path="url(#clip56)" clip-rule="nonzero">
<path style=" stroke:none;fill-rule:nonzero;fill:rgb(7.843137%,9.019608%,12.54902%);fill-opacity:1;" d="M 50.914062 32.332031 C 50.914062 34.417969 49.222656 36.109375 47.132812 36.109375 C 45.046875 36.109375 43.351562 34.417969 43.351562 32.332031 C 43.351562 30.242188 45.046875 28.550781 47.132812 28.550781 C 49.222656 28.550781 50.914062 30.242188 50.914062 32.332031 Z M 50.914062 32.332031 "/>
</g>
</g>
<g clip-path="url(#clip57)" clip-rule="nonzero">
<g clip-path="url(#clip58)" clip-rule="nonzero">
<path style=" stroke:none;fill-rule:nonzero;fill:rgb(7.843137%,9.019608%,12.54902%);fill-opacity:1;" d="M 42.171875 31.476562 C 42.171875 33.5625 40.480469 35.253906 38.390625 35.253906 C 36.304688 35.253906 34.613281 33.5625 34.613281 31.476562 C 34.613281 29.386719 36.304688 27.695312 38.390625 27.695312 C 40.480469 27.695312 42.171875 29.386719 42.171875 31.476562 Z M 42.171875 31.476562 "/>
</g>
</g>
<g clip-path="url(#clip59)" clip-rule="nonzero">
<g clip-path="url(#clip60)" clip-rule="nonzero">
<path style=" stroke:none;fill-rule:nonzero;fill:rgb(7.843137%,9.019608%,12.54902%);fill-opacity:1;" d="M 33.199219 32.941406 C 33.199219 35.027344 31.507812 36.722656 29.417969 36.722656 C 27.332031 36.722656 25.636719 35.027344 25.636719 32.941406 C 25.636719 30.851562 27.332031 29.160156 29.417969 29.160156 C 31.507812 29.160156 33.199219 30.851562 33.199219 32.941406 Z M 33.199219 32.941406 "/>
</g>
</g>
<g clip-path="url(#clip61)" clip-rule="nonzero">
<g clip-path="url(#clip62)" clip-rule="nonzero">
<path style=" stroke:none;fill-rule:nonzero;fill:rgb(7.843137%,9.019608%,12.54902%);fill-opacity:1;" d="M 61.953125 31.921875 C 61.953125 34.007812 60.257812 35.703125 58.171875 35.703125 C 56.082031 35.703125 54.390625 34.007812 54.390625 31.921875 C 54.390625 29.835938 56.082031 28.140625 58.171875 28.140625 C 60.257812 28.140625 61.953125 29.835938 61.953125 31.921875 Z M 61.953125 31.921875 "/>
</g>
</g>
<g clip-path="url(#clip63)" clip-rule="nonzero">
<g clip-path="url(#clip64)" clip-rule="nonzero">
<path style=" stroke:none;fill-rule:nonzero;fill:rgb(7.843137%,9.019608%,12.54902%);fill-opacity:1;" d="M 73.382812 31.921875 C 73.382812 34.007812 71.6875 35.703125 69.601562 35.703125 C 67.511719 35.703125 65.820312 34.007812 65.820312 31.921875 C 65.820312 29.835938 67.511719 28.140625 69.601562 28.140625 C 71.6875 28.140625 73.382812 29.835938 73.382812 31.921875 Z M 73.382812 31.921875 "/>
</g>
</g>
<g clip-path="url(#clip65)" clip-rule="nonzero">
<g clip-path="url(#clip66)" clip-rule="nonzero">
<path style=" stroke:none;fill-rule:nonzero;fill:rgb(7.843137%,9.019608%,12.54902%);fill-opacity:1;" d="M 81.222656 35.503906 C 81.222656 37.589844 79.53125 39.28125 77.445312 39.28125 C 75.355469 39.28125 73.664062 37.589844 73.664062 35.503906 C 73.664062 33.414062 75.355469 31.722656 77.445312 31.722656 C 79.53125 31.722656 81.222656 33.414062 81.222656 35.503906 Z M 81.222656 35.503906 "/>
</g>
</g>
<g clip-path="url(#clip67)" clip-rule="nonzero">
<g clip-path="url(#clip68)" clip-rule="nonzero">
<path style=" stroke:none;fill-rule:nonzero;fill:rgb(7.843137%,9.019608%,12.54902%);fill-opacity:1;" d="M 55.875 32.617188 C 55.875 34.203125 54.589844 35.492188 53 35.492188 C 51.414062 35.492188 50.125 34.203125 50.125 32.617188 C 50.125 31.027344 51.414062 29.738281 53 29.738281 C 54.589844 29.738281 55.875 31.027344 55.875 32.617188 Z M 55.875 32.617188 "/>
</g>
</g>
<g clip-path="url(#clip69)" clip-rule="nonzero">
<g clip-path="url(#clip70)" clip-rule="nonzero">
<path style=" stroke:none;fill-rule:nonzero;fill:rgb(7.843137%,9.019608%,12.54902%);fill-opacity:1;" d="M 36.390625 32.332031 C 36.390625 33.917969 35.105469 35.207031 33.515625 35.207031 C 31.925781 35.207031 30.640625 33.917969 30.640625 32.332031 C 30.640625 30.742188 31.925781 29.457031 33.515625 29.457031 C 35.105469 29.457031 36.390625 30.742188 36.390625 32.332031 Z M 36.390625 32.332031 "/>
</g>
</g>
<g clip-path="url(#clip71)" clip-rule="nonzero">
<g clip-path="url(#clip72)" clip-rule="nonzero">
<path style=" stroke:none;fill-rule:nonzero;fill:rgb(7.843137%,9.019608%,12.54902%);fill-opacity:1;" d="M 46.226562 32.332031 C 46.226562 33.917969 44.941406 35.207031 43.351562 35.207031 C 41.765625 35.207031 40.476562 33.917969 40.476562 32.332031 C 40.476562 30.742188 41.765625 29.457031 43.351562 29.457031 C 44.941406 29.457031 46.226562 30.742188 46.226562 32.332031 Z M 46.226562 32.332031 "/>
</g>
</g>
<g clip-path="url(#clip73)" clip-rule="nonzero">
<g clip-path="url(#clip74)" clip-rule="nonzero">
<path style=" stroke:none;fill-rule:nonzero;fill:rgb(7.843137%,9.019608%,12.54902%);fill-opacity:1;" d="M 66.980469 33.234375 C 66.980469 34.824219 65.691406 36.109375 64.105469 36.109375 C 62.515625 36.109375 61.230469 34.824219 61.230469 33.234375 C 61.230469 31.648438 62.515625 30.359375 64.105469 30.359375 C 65.691406 30.359375 66.980469 31.648438 66.980469 33.234375 Z M 66.980469 33.234375 "/>
</g>
</g>
<g clip-path="url(#clip75)" clip-rule="nonzero">
<g clip-path="url(#clip76)" clip-rule="nonzero">
<path style=" stroke:none;fill-rule:nonzero;fill:rgb(7.843137%,9.019608%,12.54902%);fill-opacity:1;" d="M 76.257812 33.234375 C 76.257812 34.824219 74.96875 36.109375 73.382812 36.109375 C 71.792969 36.109375 70.503906 34.824219 70.503906 33.234375 C 70.503906 31.648438 71.792969 30.359375 73.382812 30.359375 C 74.96875 30.359375 76.257812 31.648438 76.257812 33.234375 Z M 76.257812 33.234375 "/>
</g>
</g>
<g clip-path="url(#clip77)" clip-rule="nonzero">
<g clip-path="url(#clip78)" clip-rule="nonzero">
<path style=" stroke:none;fill-rule:nonzero;fill:rgb(10.196078%,10.196078%,10.196078%);fill-opacity:1;" d="M 72.847656 38.925781 C 72.847656 38.832031 72.777344 38.753906 72.683594 38.742188 C 71.886719 38.621094 68.300781 38.128906 64.449219 38.128906 C 60.070312 38.128906 54.421875 39.5 53.4375 39.5 L 52.5625 39.5 C 52.105469 39.5 50.632812 39.199219 48.75 38.886719 C 46.589844 38.519531 43.890625 38.128906 41.554688 38.128906 C 38.734375 38.128906 36.054688 38.394531 34.511719 38.578125 C 34.113281 38.625 33.714844 38.679688 33.320312 38.742188 C 33.226562 38.75 33.152344 38.832031 33.152344 38.925781 L 33.105469 41.277344 C 33.105469 41.363281 33.15625 41.4375 33.234375 41.46875 L 33.5 41.5625 C 33.894531 41.710938 33.859375 48.796875 35.972656 50.570312 C 37.230469 51.613281 38.347656 52.207031 43.050781 52.207031 C 45.78125 52.207031 47.492188 51.472656 49.121094 49.277344 C 50.296875 47.703125 51.335938 43.972656 51.335938 43.972656 C 51.652344 42.4375 52.792969 42.316406 52.980469 42.304688 L 53.003906 42.304688 C 53.039062 42.304688 54.328125 42.328125 54.664062 43.972656 C 54.664062 43.972656 55.707031 47.703125 56.878906 49.277344 C 58.503906 51.472656 60.21875 52.207031 62.949219 52.207031 C 67.652344 52.207031 68.769531 51.613281 70.027344 50.570312 C 72.140625 48.796875 72.105469 41.710938 72.5 41.5625 L 72.765625 41.46875 C 72.84375 41.4375 72.894531 41.363281 72.894531 41.277344 Z M 72.847656 38.925781 "/>
</g>
</g>
<g clip-path="url(#clip79)" clip-rule="nonzero">
<g clip-path="url(#clip80)" clip-rule="nonzero">
<path style=" stroke:none;fill-rule:nonzero;fill:rgb(7.843137%,9.019608%,12.54902%);fill-opacity:1;" d="M 85.496094 52.34375 C 85.496094 54.6875 83.597656 56.582031 81.257812 56.582031 C 78.917969 56.582031 77.023438 54.6875 77.023438 52.34375 C 77.023438 50.003906 78.917969 48.109375 81.257812 48.109375 C 83.597656 48.109375 85.496094 50.003906 85.496094 52.34375 Z M 85.496094 52.34375 "/>
</g>
</g>
<g clip-path="url(#clip81)" clip-rule="nonzero">
<g clip-path="url(#clip82)" clip-rule="nonzero">
<path style=" stroke:none;fill-rule:nonzero;fill:rgb(7.843137%,9.019608%,12.54902%);fill-opacity:1;" d="M 88.371094 31.414062 C 88.371094 33.003906 87.085938 34.292969 85.496094 34.292969 C 83.90625 34.292969 82.621094 33.003906 82.621094 31.414062 C 82.621094 29.828125 83.90625 28.539062 85.496094 28.539062 C 87.085938 28.539062 88.371094 29.828125 88.371094 31.414062 Z M 88.371094 31.414062 "/>
</g>
</g>
<g clip-path="url(#clip83)" clip-rule="nonzero">
<g clip-path="url(#clip84)" clip-rule="nonzero">
<path style=" stroke:none;fill-rule:nonzero;fill:rgb(7.843137%,9.019608%,12.54902%);fill-opacity:1;" d="M 87.699219 42.242188 C 87.699219 43.832031 86.410156 45.117188 84.824219 45.117188 C 83.234375 45.117188 81.949219 43.832031 81.949219 42.242188 C 81.949219 40.65625 83.234375 39.367188 84.824219 39.367188 C 86.410156 39.367188 87.699219 40.65625 87.699219 42.242188 Z M 87.699219 42.242188 "/>
</g>
</g>
</g>
</svg>
